<svg width="25" height="19" viewBox="0 0 25 19" fill="none" xmlns="http://www.w3.org/2000/svg">
<path d="M20.4151 2.37918L20.2081 2.83433C18.8794 2.23014 17.4913 1.80264 16.054 1.52584C16.0216 1.59114 15.9904 1.65289 15.9601 1.71282C15.8725 1.88614 15.7927 2.04416 15.7149 2.22823L15.7136 2.23147C15.652 2.3744 15.5445 2.53946 15.3439 2.63356C15.1703 2.715 14.9965 2.70585 14.9145 2.70105L14.9113 2.70086L14.9113 2.70084C14.701 2.68715 14.4923 2.67275 14.2847 2.65843C13.515 2.60532 12.7612 2.55331 12.0047 2.54276L12.0046 2.54276C11.5272 2.53602 11.0553 2.59024 10.5491 2.6484C10.4145 2.66385 10.2776 2.67959 10.1374 2.69454L10.1339 2.69491C10.0339 2.70485 9.84391 2.72005 9.65447 2.63231C9.43924 2.53262 9.32637 2.35312 9.26204 2.19873L9.25913 2.19174L9.25919 2.19172C9.20706 2.06105 9.14227 1.93014 9.06722 1.78522C9.05159 1.75503 9.03526 1.72377 9.01849 1.69167C8.98978 1.63671 8.95979 1.57929 8.92981 1.52059C7.48625 1.80119 6.08939 2.22871 4.7568 2.83646C4.74814 2.84079 4.73581 2.8484 4.72344 2.85861C4.7125 2.86764 4.70696 2.87419 4.70562 2.87581C3.2226 5.1046 2.16205 7.50012 1.66528 10.118L1.66498 10.1195C1.32449 11.8834 1.24943 13.6661 1.41578 15.4563L24.1692 12.7337C24.1281 12.2974 24.087 11.8611 24.0322 11.4338C23.7673 9.02472 23.0457 6.75651 21.8994 4.62012C21.6058 4.06862 21.2739 3.53767 20.9416 3.00603C20.8603 2.87601 20.779 2.74595 20.6983 2.61554C20.6389 2.51554 20.5247 2.42918 20.4151 2.37918ZM20.4151 2.37918L20.2076 2.83408C20.2251 2.84208 20.2447 2.85402 20.2603 2.86672C20.2663 2.87162 20.2703 2.87546 20.2725 2.87776L20.2732 2.87882C20.3565 3.01331 20.4395 3.14609 20.5218 3.27778C20.8531 3.80797 21.1734 4.32042 21.458 4.85506L21.4588 4.85652C22.576 6.93863 23.2776 9.14536 23.5352 11.4885L23.5351 11.4885L23.5363 11.4975C23.5889 11.9075 23.6287 12.3276 23.6692 12.7574L0.927422 15.6021C0.744739 13.7339 0.817812 11.8702 1.17404 10.0247C1.68555 7.32924 2.77708 4.87012 4.29335 2.59282C4.35272 2.50645 4.44863 2.42918 4.54454 2.38372C5.9786 1.72917 7.48116 1.27916 9.0294 0.992794C9.15271 0.970067 9.22578 0.988249 9.28516 1.11098M20.4151 2.37918C18.9856 1.72917 17.4922 1.27916 15.9485 0.99734C15.8252 0.974612 15.7521 1.00189 15.6973 1.11552C15.6419 1.23278 15.5838 1.34807 15.5259 1.46313C15.431 1.6514 15.3365 1.83905 15.2543 2.03372C15.1858 2.19281 15.099 2.21099 14.9438 2.2019C14.738 2.1885 14.5322 2.1743 14.3265 2.1601C13.5549 2.10684 12.7833 2.05357 12.0117 2.04281C11.4989 2.03557 10.9862 2.09462 10.4757 2.1534C10.3451 2.16844 10.2146 2.18347 10.0844 2.19736C9.90171 2.21554 9.80123 2.19281 9.72359 2.00644C9.64792 1.81675 9.55332 1.63561 9.4588 1.45463C9.39931 1.34072 9.33984 1.22687 9.28516 1.11098M9.28516 1.11098L9.07004 1.2125M9.28516 1.11098L9.07047 1.21484L9.12027 1.4841C9.12153 1.48403 9.12266 1.48395 9.12368 1.48387C9.12261 1.48405 9.1214 1.48426 9.12003 1.48451L9.11996 1.48412M9.11996 1.48412C9.09969 1.48521 9.04981 1.48412 8.98972 1.4592C8.93771 1.43763 8.89739 1.40635 8.86959 1.37614C8.85675 1.36219 8.84809 1.35013 8.84283 1.34203C8.83763 1.33402 8.83523 1.32907 8.83506 1.32872L9.07034 1.2149L9.11996 1.48412Z" fill="#00FFBF" stroke="#00FFBF"/>
</svg>
