<svg width="25" height="19" viewBox="0 0 25 19" fill="none" xmlns="http://www.w3.org/2000/svg">
<path d="M20.4149 2.37918L20.2079 2.83433C18.8792 2.23014 17.4911 1.80264 16.0538 1.52584C16.0214 1.59114 15.9902 1.65289 15.9599 1.71282C15.8723 1.88614 15.7925 2.04416 15.7147 2.22823L15.7134 2.23147C15.6518 2.3744 15.5443 2.53946 15.3437 2.63356C15.1701 2.715 14.9963 2.70585 14.9143 2.70105L14.9111 2.70086L14.9111 2.70084C14.7008 2.68715 14.4921 2.67275 14.2845 2.65843C13.5148 2.60532 12.761 2.55331 12.0045 2.54276L12.0044 2.54276C11.527 2.53602 11.0551 2.59024 10.5489 2.6484C10.4143 2.66385 10.2774 2.67959 10.1372 2.69454L10.1337 2.69491C10.0337 2.70485 9.84371 2.72005 9.65427 2.63231C9.43904 2.53262 9.32616 2.35312 9.26184 2.19873L9.25893 2.19174L9.25898 2.19172C9.20685 2.06105 9.14207 1.93014 9.06702 1.78522C9.05139 1.75503 9.03506 1.72377 9.01829 1.69167C8.98958 1.63671 8.95958 1.57929 8.92961 1.52059C7.48605 1.80119 6.08918 2.22871 4.7566 2.83646C4.74794 2.84079 4.73561 2.8484 4.72324 2.85861C4.7123 2.86764 4.70675 2.87419 4.70541 2.87581C3.22239 5.1046 2.16185 7.50012 1.66507 10.118L1.66478 10.1195C1.32429 11.8834 1.24923 13.6661 1.41558 15.4563L24.169 12.7337C24.1279 12.2974 24.0868 11.8611 24.032 11.4338C23.7671 9.02472 23.0455 6.75651 21.8992 4.62012C21.6056 4.06862 21.2737 3.53767 20.9414 3.00603C20.8601 2.87601 20.7788 2.74595 20.6981 2.61554C20.6387 2.51554 20.5245 2.42918 20.4149 2.37918ZM20.4149 2.37918L20.2074 2.83408C20.2249 2.84208 20.2445 2.85402 20.2601 2.86672C20.2661 2.87162 20.2701 2.87546 20.2723 2.87776L20.273 2.87882C20.3563 3.01331 20.4393 3.14609 20.5216 3.27778C20.8529 3.80797 21.1732 4.32042 21.4578 4.85506L21.4586 4.85652C22.5758 6.93863 23.2774 9.14536 23.535 11.4885L23.5349 11.4885L23.5361 11.4975C23.5887 11.9075 23.6285 12.3276 23.669 12.7574L0.927218 15.6021C0.744536 13.7339 0.817609 11.8702 1.17384 10.0247C1.68535 7.32924 2.77688 4.87012 4.29315 2.59282C4.35252 2.50645 4.44843 2.42918 4.54434 2.38372C5.9784 1.72917 7.48096 1.27916 9.0292 0.992794C9.15251 0.970067 9.22558 0.988249 9.28495 1.11098M20.4149 2.37918C18.9854 1.72917 17.492 1.27916 15.9483 0.99734C15.825 0.974612 15.7519 1.00189 15.6971 1.11552C15.6417 1.23278 15.5836 1.34807 15.5257 1.46313C15.4308 1.6514 15.3363 1.83905 15.2541 2.03372C15.1856 2.19281 15.0988 2.21099 14.9436 2.2019C14.7378 2.1885 14.532 2.1743 14.3263 2.1601C13.5547 2.10684 12.7831 2.05357 12.0115 2.04281C11.4987 2.03557 10.986 2.09462 10.4755 2.1534C10.3449 2.16844 10.2144 2.18347 10.0842 2.19736C9.90151 2.21554 9.80103 2.19281 9.72339 2.00644C9.64771 1.81675 9.55311 1.63561 9.45859 1.45463C9.3991 1.34072 9.33964 1.22687 9.28495 1.11098M9.28495 1.11098L9.06983 1.2125M9.28495 1.11098L9.07027 1.21484L9.12007 1.4841C9.12132 1.48403 9.12246 1.48395 9.12347 1.48387C9.12241 1.48405 9.12119 1.48426 9.11983 1.48451L9.11975 1.48412M9.11975 1.48412C9.09949 1.48521 9.04961 1.48412 8.98952 1.4592C8.93751 1.43763 8.89719 1.40635 8.86939 1.37614C8.85655 1.36219 8.84789 1.35013 8.84263 1.34203C8.83742 1.33402 8.83502 1.32907 8.83485 1.32872L9.07013 1.2149L9.11975 1.48412Z" fill="#00FFBF" stroke="#00FFBF"/>
</svg>
