<svg width="38" height="28" viewBox="0 0 38 28" fill="none" xmlns="http://www.w3.org/2000/svg">
<path d="M37.5 18.6272C37.5 19.6073 37.5 20.5946 37.5 21.5746C37.4566 22.0718 37.4204 22.5763 37.3479 23.0735C37.3262 23.2393 37.2249 23.441 37.0945 23.5347C34.5531 25.3867 31.7873 26.8136 28.7969 27.8153C27.9571 28.0963 27.9353 28.1035 27.4575 27.3541C26.9361 26.5542 26.4583 25.7254 25.9297 24.8751C26.5162 24.6157 27.0375 24.4067 27.5443 24.1689C28.0512 23.9239 28.5508 23.65 29.0648 23.3762C28.5218 22.7348 28.4277 22.7132 27.7833 22.987C21.9113 25.466 16.0465 25.4372 10.1745 22.9798C9.57349 22.7276 9.37076 22.7781 8.90737 23.405C9.93552 23.9022 10.9564 24.3923 12.057 24.9183C11.3981 25.9488 10.7682 26.9433 10.1093 27.9306C10.0658 28.0026 9.84863 28.017 9.74002 27.981C6.53249 26.9865 3.57114 25.4876 0.863202 23.5131C0.761836 23.441 0.660469 23.2969 0.653229 23.1744C0.36361 20.2126 0.479457 17.258 1.04421 14.3323C1.85515 10.0589 3.58562 6.16033 5.98946 2.54997C6.08358 2.41305 6.23563 2.29054 6.38768 2.21848C8.66119 1.18077 11.0433 0.467345 13.4978 0.0133478C13.6933 -0.0226837 13.8092 0.00614146 13.9033 0.200712C14.1277 0.676328 14.4029 1.13032 14.5984 1.62035C14.7215 1.91581 14.8808 1.95184 15.1704 1.92302C16.184 1.81492 17.205 1.66359 18.2259 1.678C19.7753 1.69962 21.3248 1.82934 22.8742 1.93022C23.1204 1.94464 23.258 1.91581 23.3666 1.66359C23.5766 1.16636 23.8372 0.697947 24.0689 0.207918C24.1558 0.0277604 24.2717 -0.0154774 24.4671 0.0205541C26.9144 0.467345 29.2821 1.18077 31.5483 2.21127C31.7221 2.29054 31.9031 2.42746 31.9972 2.586C32.6489 3.63812 33.3222 4.67583 33.9015 5.76398C35.7188 9.15094 36.8628 12.7469 37.2828 16.5662C37.3697 17.2436 37.4348 17.9354 37.5 18.6272ZM28.5363 15.37C28.4422 14.916 28.3915 14.4476 28.2394 14.008C27.4357 11.702 24.7423 10.9669 23.0335 12.5667C21.4551 14.0368 21.4406 16.7608 23.0118 18.2453C24.2861 19.4488 26.1542 19.4271 27.3851 18.1876C28.1453 17.4094 28.4711 16.4509 28.5363 15.37ZM16.2709 15.3628C16.1189 14.8007 16.032 14.2098 15.8003 13.6909C14.8084 11.493 12.1439 11.039 10.5365 12.7613C9.13906 14.2602 9.21871 16.8184 10.703 18.2309C11.9701 19.4415 13.8309 19.4271 15.0763 18.1804C15.8437 17.4166 16.1696 16.4581 16.2709 15.3628Z" fill="#010101"/>
</svg>
