<svg width="209" height="32" viewBox="0 0 209 32" fill="none" xmlns="http://www.w3.org/2000/svg">
<path d="M33.28 31.9993H24.7925L14.1716 0H22.659L33.28 31.9993Z" fill="#010101"/>
<path d="M12.0327 6.40514L7.78526 19.2026L3.53782 32H12.026L15.492 21.5573C15.8766 20.3985 15.0164 19.2026 13.7984 19.2026H7.79873L12.0462 6.40514H12.0327Z" fill="#010101"/>
<path d="M12.0327 6.40514H3.55938L0.092716 16.8478C-0.291945 18.0066 0.568323 19.2026 1.7863 19.2026H7.78526L3.53782 32H3.55063L12.0455 6.40514H12.0327Z" fill="#010101"/>
<path d="M56.824 19.704H49.264L47.752 24H45.52L51.856 6.84H54.256L60.568 24H58.336L56.824 19.704ZM49.984 17.784H56.128L53.08 8.832H53.032L49.984 17.784ZM68.1391 11.424C70.3711 11.424 72.2431 12.648 72.2431 15.456V24H70.3231V15.936C70.3231 14.352 69.5791 13.104 67.6591 13.104C65.4991 13.104 64.0591 14.472 64.0591 16.368V24H62.1391V11.76H64.0591V13.224H64.1071C64.7551 12.36 66.0511 11.424 68.1391 11.424ZM79.9124 13.44H77.5124V20.808C77.5124 22.2 78.2804 22.44 79.9124 22.32V24C79.4804 24.096 78.9764 24.144 78.4724 24.144C76.8404 24.144 75.5924 23.496 75.5924 21V13.44H73.7924V11.76H75.5924V7.68H77.5124V11.76H79.9124V13.44ZM89.4083 14.88C89.4083 13.92 88.8803 13.104 86.9123 13.104C84.5843 13.104 83.8163 13.776 83.6963 15.552H81.7763C81.8963 13.2 83.3603 11.424 86.9123 11.424C89.2403 11.424 91.3283 12.336 91.3283 15.288V21.24C91.3283 22.2 91.4963 22.728 92.7203 22.584V23.928C92.2163 24.096 91.9523 24.12 91.5923 24.12C90.4403 24.12 89.7443 23.808 89.4083 22.464H89.3603C88.5923 23.616 87.2243 24.336 85.2083 24.336C82.7363 24.336 81.1763 22.92 81.1763 20.856C81.1763 18.072 83.2403 17.352 86.4083 16.752C88.4723 16.368 89.4083 16.104 89.4083 14.88ZM85.4003 22.656C87.6803 22.656 89.4083 21.624 89.4083 19.272V17.232C89.0483 17.592 87.8723 17.928 86.5763 18.192C84.2003 18.696 83.0963 19.296 83.0963 20.76C83.0963 21.96 83.8163 22.656 85.4003 22.656ZM99.5067 11.424C99.9627 11.424 100.299 11.448 100.635 11.496V13.416H100.587C97.9227 12.984 96.0747 14.856 96.0747 17.472V24H94.1547V11.76H96.0747V14.184H96.1227C96.7707 12.576 97.7547 11.424 99.5067 11.424ZM109.634 14.16H118.442V16.08H109.634V22.08H119.882V24H107.474V6.84H119.594V8.76H109.634V14.16ZM121.348 11.76H123.628L126.796 16.44H126.844L130.012 11.76H132.292L127.972 17.736L132.724 24H130.444L126.844 19.008H126.796L123.22 24H120.94L125.668 17.736L121.348 11.76ZM142.03 16.176C141.934 14.832 141.022 13.104 138.574 13.104C135.67 13.104 134.566 15.576 134.566 17.88C134.566 20.184 135.67 22.656 138.574 22.656C141.046 22.656 141.934 20.952 142.03 19.488H143.95C143.782 22.272 141.598 24.336 138.574 24.336C134.998 24.336 132.646 21.72 132.646 17.88C132.646 14.04 134.998 11.424 138.574 11.424C141.598 11.424 143.662 13.44 143.95 16.176H142.03ZM151.788 11.424C154.02 11.424 155.892 12.648 155.892 15.456V24H153.972V15.936C153.972 14.352 153.228 13.104 151.308 13.104C149.148 13.104 147.708 14.472 147.708 16.368V24H145.788V6.84H147.708V13.224H147.756C148.404 12.36 149.7 11.424 151.788 11.424ZM165.955 14.88C165.955 13.92 165.427 13.104 163.459 13.104C161.131 13.104 160.363 13.776 160.243 15.552H158.323C158.443 13.2 159.907 11.424 163.459 11.424C165.787 11.424 167.875 12.336 167.875 15.288V21.24C167.875 22.2 168.043 22.728 169.267 22.584V23.928C168.763 24.096 168.499 24.12 168.139 24.12C166.987 24.12 166.291 23.808 165.955 22.464H165.907C165.139 23.616 163.771 24.336 161.755 24.336C159.283 24.336 157.723 22.92 157.723 20.856C157.723 18.072 159.787 17.352 162.955 16.752C165.019 16.368 165.955 16.104 165.955 14.88ZM161.947 22.656C164.227 22.656 165.955 21.624 165.955 19.272V17.232C165.595 17.592 164.419 17.928 163.123 18.192C160.747 18.696 159.643 19.296 159.643 20.76C159.643 21.96 160.363 22.656 161.947 22.656ZM176.702 11.424C178.934 11.424 180.806 12.648 180.806 15.456V24H178.886V15.936C178.886 14.352 178.142 13.104 176.222 13.104C174.062 13.104 172.622 14.472 172.622 16.368V24H170.702V11.76H172.622V13.224H172.67C173.318 12.36 174.614 11.424 176.702 11.424ZM192.093 11.76H194.013V23.328C194.013 26.592 191.949 28.248 188.589 28.248C185.229 28.248 183.237 26.472 183.045 24.384H184.965C185.205 25.632 186.213 26.568 188.493 26.568C190.773 26.568 192.093 25.584 192.093 23.304V21.456H192.045C191.325 22.512 190.173 23.376 188.157 23.376C185.133 23.376 182.685 21.432 182.685 17.4C182.685 13.368 185.133 11.424 188.157 11.424C190.173 11.424 191.325 12.336 192.045 13.272H192.093V11.76ZM188.397 21.696C190.677 21.696 192.093 20.28 192.093 17.4C192.093 14.52 190.677 13.104 188.397 13.104C185.877 13.104 184.605 15 184.605 17.4C184.605 19.8 185.877 21.696 188.397 21.696ZM201.855 22.656C204.303 22.656 205.215 21.072 205.431 20.232H207.351C206.727 22.512 204.975 24.336 201.927 24.336C198.207 24.336 195.951 21.72 195.951 17.88C195.951 13.8 198.255 11.424 201.831 11.424C205.671 11.424 207.543 14.04 207.543 18.384H197.871C197.871 20.592 199.191 22.656 201.855 22.656ZM201.831 13.104C199.527 13.104 197.871 14.736 197.871 16.704H205.623C205.623 14.736 204.135 13.104 201.831 13.104Z" fill="#010101"/>
</svg>
