<svg width="20" height="20" viewBox="0 0 20 20" fill="none" xmlns="http://www.w3.org/2000/svg">
<mask id="path-1-inside-1_24_11518" fill="white">
<path d="M11.6174 8.36756L18.6631 0.354004H16.9941L10.8737 7.31064L5.98905 0.354004H0.35376L7.74196 10.8747L0.35376 19.2771H2.02277L8.48185 11.9291L13.6415 19.2771H19.2768M2.62516 1.5855H5.18924L16.9928 18.1061H14.4281"/>
</mask>
<path d="M11.6174 8.36756L18.6631 0.354004H16.9941L10.8737 7.31064L5.98905 0.354004H0.35376L7.74196 10.8747L0.35376 19.2771H2.02277L8.48185 11.9291L13.6415 19.2771H19.2768M2.62516 1.5855H5.18924L16.9928 18.1061H14.4281" fill="#00FFBF"/>
<path d="M18.6631 0.354004L19.4141 1.0143L20.8739 -0.645996H18.6631V0.354004ZM16.9941 0.354004V-0.645996H16.5419L16.2433 -0.306534L16.9941 0.354004ZM10.8737 7.31064L10.0553 7.88529L10.7854 8.92499L11.6245 7.97117L10.8737 7.31064ZM5.98905 0.354004L6.80745 -0.220645L6.50879 -0.645996H5.98905V0.354004ZM0.35376 0.354004V-0.645996H-1.57045L-0.464604 0.928705L0.35376 0.354004ZM7.74196 10.8747L8.49294 11.535L9.0126 10.944L8.56032 10.3L7.74196 10.8747ZM0.35376 19.2771L-0.397216 18.6168L-1.85714 20.2771H0.35376V19.2771ZM2.02277 19.2771V20.2771H2.47517L2.77385 19.9373L2.02277 19.2771ZM8.48185 11.9291L9.30024 11.3544L8.56987 10.3143L7.73077 11.2689L8.48185 11.9291ZM13.6415 19.2771L12.8232 19.8517L13.1218 20.2771H13.6415V19.2771ZM5.18924 1.5855L6.0029 1.00416L5.70377 0.585501H5.18924V1.5855ZM16.9928 18.1061V19.1061H18.9363L17.8065 17.5247L16.9928 18.1061ZM12.3684 9.02785L19.4141 1.0143L17.9121 -0.306295L10.8664 7.70726L12.3684 9.02785ZM18.6631 -0.645996H16.9941V1.354H18.6631V-0.645996ZM16.2433 -0.306534L10.1229 6.6501L11.6245 7.97117L17.7449 1.01454L16.2433 -0.306534ZM11.6921 6.73599L6.80745 -0.220645L5.17065 0.928653L10.0553 7.88529L11.6921 6.73599ZM5.98905 -0.645996H0.35376V1.354H5.98905V-0.645996ZM-0.464604 0.928705L6.9236 11.4494L8.56032 10.3L1.17212 -0.220697L-0.464604 0.928705ZM6.99098 10.2143L-0.397216 18.6168L1.10474 19.9374L8.49294 11.535L6.99098 10.2143ZM0.35376 20.2771H2.02277V18.2771H0.35376V20.2771ZM2.77385 19.9373L9.23293 12.5893L7.73077 11.2689L1.2717 18.6169L2.77385 19.9373ZM7.66346 12.5037L12.8232 19.8517L14.4599 18.7024L9.30024 11.3544L7.66346 12.5037ZM13.6415 20.2771H19.2768V18.2771H13.6415V20.2771ZM2.62516 2.5855H5.18924V0.585501H2.62516V2.5855ZM4.37558 2.16684L16.1792 18.6874L17.8065 17.5247L6.0029 1.00416L4.37558 2.16684ZM16.9928 17.1061H14.4281V19.1061H16.9928V17.1061Z" fill="#00FFBF" mask="url(#path-1-inside-1_24_11518)"/>
</svg>
